<svg xmlns="http://www.w3.org/2000/svg" width="9119" height="1488" viewBox="0 0 9119 1488" version="1.1"><path d="M 505 57.723 C 487.707 58.315, 459.172 61.751, 437 65.910 C 338.696 84.352, 261.638 121.867, 191.566 185.400 C 161.118 213.006, 130.732 247.144, 109.004 278.157 C 59.933 348.199, 30.299 427.230, 23.571 506 C 21.003 536.063, 21.021 533.552, 20.374 957 L 19.761 1358.500 20.856 1366.147 C 21.459 1370.354, 22.932 1376.417, 24.132 1379.622 L 26.312 1385.449 31.204 1390.622 C 36.774 1396.512, 42.781 1399.472, 53.343 1401.531 L 60.500 1402.927 384.528 1402.966 L 708.557 1403.006 714.447 1401.472 C 723.445 1399.128, 731.546 1394.320, 737.331 1387.889 C 743.542 1380.987, 741.265 1385.334, 770 1325.500 C 775.500 1314.046, 793.521 1277.594, 857.500 1148.500 C 873.310 1116.600, 898.284 1066.200, 912.997 1036.500 C 943.042 975.852, 980.096 901.066, 1022 816.500 C 1037.534 785.150, 1062.284 735.200, 1077 705.500 C 1091.716 675.800, 1116.466 625.850, 1132 594.500 C 1147.534 563.150, 1172.284 513.200, 1187 483.500 C 1201.716 453.800, 1226.466 403.850, 1242 372.500 C 1257.534 341.150, 1282.284 291.200, 1296.999 261.500 C 1311.714 231.800, 1336.910 180.950, 1352.991 148.500 C 1393.737 66.275, 1391.400 71.401, 1391.115 64.859 L 1391 62.217 1386.750 60.430 L 1382.500 58.644 1146.500 58.312 C 681.932 57.660, 511.401 57.503, 505 57.723 M 2326 262.667 C 2240.140 268.463, 2157.831 297.183, 2105.293 339.677 C 2038.679 393.556, 2006 462.574, 2006 549.382 L 2006 568.552 2009.046 585.933 C 2016.142 626.431, 2025.225 651.393, 2042.641 678.260 C 2056.558 699.729, 2081.585 726.261, 2100 739.066 C 2101.925 740.405, 2103.725 741.740, 2104 742.034 C 2108.058 746.368, 2139.966 765.444, 2157 773.718 C 2199.541 794.384, 2236.221 805.340, 2329 825.093 C 2439.592 848.638, 2474.915 859.177, 2512.217 879.758 C 2549.473 900.313, 2571.812 931.101, 2577.654 969.941 L 2579.242 980.500 2578.671 993 C 2575.345 1065.781, 2531.861 1111.125, 2444.500 1132.910 C 2399.605 1144.105, 2351.708 1145.476, 2304.500 1136.916 C 2204.165 1118.723, 2148.019 1075.248, 2131.556 1003 C 2129.344 993.293, 2128.348 991.378, 2124.171 988.797 L 2120.717 986.662 2062.108 986.309 C 2029.874 986.116, 2000.360 986.260, 1996.521 986.630 L 1989.543 987.303 1986.771 990.075 L 1984 992.846 1984.033 999.173 C 1984.082 1008.792, 1987.093 1029.956, 1990.598 1045.321 C 2022.164 1183.717, 2159.861 1270.390, 2351.500 1272.491 C 2568.693 1274.872, 2710.493 1178.576, 2728.457 1016.500 L 2729.898 1003.500 2729.532 974.500 L 2729.166 945.500 2726.636 930 C 2710.335 830.152, 2649.113 767.955, 2527.716 727.912 C 2492.139 716.177, 2461.934 708.754, 2373.500 690.014 C 2335.195 681.897, 2311.504 676.202, 2288 669.462 C 2211.931 647.647, 2171.500 613.556, 2160.375 561.846 L 2158.580 553.500 2158.610 535.500 L 2158.641 517.500 2160.794 508.377 C 2175.998 443.979, 2231.732 404.462, 2321.472 394.454 L 2333.500 393.113 2361.500 393.441 L 2389.500 393.769 2401.500 395.404 C 2491.534 407.666, 2547.361 454.004, 2564.127 530.388 C 2566.496 541.184, 2567.052 542.284, 2571.757 545.481 L 2575.464 548 2641.121 548 L 2706.778 548 2709.139 546.082 L 2711.500 544.164 2711.407 535.332 C 2711.238 519.397, 2706.169 491.502, 2699.558 470.124 C 2663.880 354.761, 2553.317 276.627, 2408.500 264.437 C 2404.650 264.113, 2400.375 263.622, 2399 263.346 C 2395.936 262.730, 2333.641 262.151, 2326 262.667 M 7753.876 278.815 C 7752.021 279.742, 7749.911 281.745, 7749.188 283.267 L 7747.874 286.035 7747.806 768.613 L 7747.737 1251.192 7750.391 1253.846 L 7753.045 1256.500 7818.273 1256.680 C 7886.624 1256.868, 7888.888 1256.736, 7890.853 1252.424 L 7892 1249.906 7892 1195.453 L 7892 1141 7893.500 1140.850 C 7894.325 1140.767, 7895.404 1140.655, 7895.897 1140.600 C 7897.002 1140.477, 7903.606 1149.380, 7912.185 1162.557 C 7925.797 1183.467, 7947.582 1206.970, 7963.612 1218.041 C 8003.805 1245.800, 8029.807 1257.188, 8070.500 1264.853 C 8225.197 1293.995, 8359.773 1201.383, 8400.870 1037.500 C 8414.939 981.395, 8422.491 884.587, 8415.614 848.500 C 8415.404 847.400, 8414.913 843.125, 8414.522 839 C 8400.795 694.142, 8325.811 582.122, 8218.500 546.160 C 8185.949 535.251, 8161.120 531.488, 8122.500 531.610 L 8096.500 531.692 8083.500 533.322 C 8067.351 535.347, 8065.862 535.604, 8053.339 538.537 C 7995.705 552.033, 7944.479 588.856, 7909.674 641.809 C 7906.025 647.361, 7900.668 654.213, 7897.770 657.036 L 7892.500 662.169 7892 473.335 L 7891.500 284.500 7890.072 282.350 C 7889.287 281.168, 7887.198 279.511, 7885.431 278.668 L 7882.217 277.136 7819.734 277.133 L 7757.251 277.130 7753.876 278.815 M 5745.718 280.244 C 5746.273 282.592, 5752.281 304.893, 5754.003 311 C 5754.546 312.925, 5756.119 318.775, 5757.500 324 C 5758.881 329.225, 5760.456 335.075, 5761 337 C 5761.544 338.925, 5763.119 344.775, 5764.500 350 C 5765.881 355.225, 5767.456 361.075, 5768 363 C 5768.544 364.925, 5770.119 370.775, 5771.500 376 C 5772.881 381.225, 5774.442 387.075, 5774.971 389 C 5775.499 390.925, 5777.075 396.775, 5778.473 402 C 5779.871 407.225, 5781.448 413.075, 5781.979 415 C 5782.510 416.925, 5784.076 422.775, 5785.459 428 C 5786.843 433.225, 5789.493 443.125, 5791.350 450 C 5793.206 456.875, 5796.416 468.800, 5798.481 476.500 C 5800.547 484.200, 5803.697 495.900, 5805.481 502.500 C 5807.266 509.100, 5810.417 520.800, 5812.484 528.500 C 5814.552 536.200, 5817.954 548.800, 5820.045 556.500 C 5822.136 564.200, 5825.714 577.475, 5827.995 586 C 5830.277 594.525, 5833.429 606.225, 5835 612 C 5836.571 617.775, 5839.721 629.475, 5842 638 C 5844.279 646.525, 5847.428 658.225, 5848.997 664 C 5850.566 669.775, 5853.968 682.375, 5856.557 692 C 5859.146 701.625, 5862.726 714.900, 5864.514 721.500 C 5866.301 728.100, 5869.453 739.800, 5871.519 747.500 C 5873.584 755.200, 5876.734 766.900, 5878.519 773.500 C 5880.303 780.100, 5883.453 791.800, 5885.519 799.500 C 5891.589 822.129, 5895.946 838.251, 5897.003 842 C 5897.546 843.925, 5899.119 849.775, 5900.500 855 C 5901.881 860.225, 5903.456 866.075, 5904 868 C 5904.544 869.925, 5906.119 875.775, 5907.500 881 C 5908.881 886.225, 5910.456 892.075, 5911 894 C 5911.544 895.925, 5913.119 901.775, 5914.500 907 C 5915.881 912.225, 5917.442 918.075, 5917.971 920 C 5918.499 921.925, 5920.013 927.550, 5921.336 932.500 C 5926.906 953.350, 5931.438 970.242, 5934.481 981.500 C 5936.266 988.100, 5939.416 999.800, 5941.481 1007.500 C 5943.547 1015.200, 5946.697 1026.900, 5948.481 1033.500 C 5950.266 1040.100, 5953.417 1051.800, 5955.484 1059.500 C 5957.552 1067.200, 5960.954 1079.800, 5963.045 1087.500 C 5965.136 1095.200, 5968.714 1108.475, 5970.995 1117 C 5973.277 1125.525, 5976.429 1137.225, 5978 1143 C 5979.571 1148.775, 5982.725 1160.475, 5985.009 1169 C 5990.420 1189.193, 5995.261 1207.157, 5999.964 1224.500 C 6002.052 1232.200, 6004.818 1242.438, 6006.111 1247.250 L 6008.461 1256 6080.588 1256 L 6152.714 1256 6160.255 1229.750 C 6164.403 1215.313, 6182.279 1152.875, 6199.981 1091 C 6217.683 1029.125, 6249.657 917.525, 6271.035 843 C 6292.413 768.475, 6314.223 692.200, 6319.502 673.500 C 6335.331 617.426, 6364.066 517.600, 6364.505 517.162 C 6366.214 515.453, 6368.366 520.750, 6374.237 541.123 C 6382.518 569.862, 6441.830 777.133, 6477.217 901 C 6491.594 951.325, 6520.282 1051.675, 6540.967 1124 L 6578.578 1255.500 6650.975 1255.500 L 6723.371 1255.500 6726.178 1245 C 6727.723 1239.225, 6730.621 1228.425, 6732.619 1221 C 6737.055 1204.512, 6740.315 1192.369, 6743.489 1180.500 C 6744.813 1175.550, 6746.630 1168.800, 6747.527 1165.500 C 6748.424 1162.200, 6749.995 1156.350, 6751.018 1152.500 C 6753.265 1144.048, 6756.363 1132.475, 6758.380 1125 C 6759.196 1121.975, 6760.771 1116.125, 6761.880 1112 C 6762.989 1107.875, 6764.594 1101.912, 6765.448 1098.750 C 6766.302 1095.588, 6767.698 1090.412, 6768.552 1087.250 C 6769.406 1084.088, 6771.011 1078.125, 6772.118 1074 C 6773.226 1069.875, 6775.171 1062.675, 6776.441 1058 C 6777.710 1053.325, 6780.383 1043.425, 6782.381 1036 C 6784.379 1028.575, 6787.591 1016.650, 6789.519 1009.500 C 6791.446 1002.350, 6794.596 990.650, 6796.519 983.500 C 6798.441 976.350, 6801.591 964.650, 6803.519 957.500 C 6805.446 950.350, 6808.596 938.650, 6810.519 931.500 C 6815.223 914.003, 6819.807 897.022, 6825.500 876 C 6831.193 854.978, 6835.777 837.997, 6840.481 820.500 C 6842.404 813.350, 6845.554 801.650, 6847.481 794.500 C 6849.409 787.350, 6852.559 775.650, 6854.481 768.500 C 6856.404 761.350, 6859.554 749.650, 6861.481 742.500 C 6863.409 735.350, 6866.559 723.650, 6868.481 716.500 C 6870.404 709.350, 6873.554 697.650, 6875.481 690.500 C 6877.409 683.350, 6880.559 671.650, 6882.481 664.500 C 6884.404 657.350, 6887.554 645.650, 6889.481 638.500 C 6891.409 631.350, 6894.559 619.650, 6896.481 612.500 C 6898.404 605.350, 6901.554 593.650, 6903.481 586.500 C 6908.628 567.409, 6912.915 551.437, 6915.021 543.500 C 6917.161 535.435, 6920.238 523.939, 6922.380 516 C 6923.196 512.975, 6924.771 507.125, 6925.880 503 C 6926.989 498.875, 6928.564 493.025, 6929.380 490 C 6930.196 486.975, 6931.771 481.125, 6932.880 477 C 6933.989 472.875, 6935.564 467.025, 6936.380 464 C 6937.196 460.975, 6938.771 455.125, 6939.880 451 C 6942.490 441.289, 6944.301 434.583, 6947.307 423.500 C 6948.650 418.550, 6951.383 408.425, 6953.381 401 C 6955.379 393.575, 6958.591 381.650, 6960.519 374.500 C 6962.446 367.350, 6965.596 355.650, 6967.519 348.500 C 6969.441 341.350, 6972.591 329.650, 6974.519 322.500 C 6976.446 315.350, 6979.652 303.425, 6981.641 296 C 6983.631 288.575, 6985.479 281.712, 6985.746 280.750 L 6986.233 279 6908.136 279 L 6830.038 279 6829.528 281.250 C 6828.798 284.466, 6823.251 308.046, 6821 317.500 C 6819.952 321.900, 6817.702 331.350, 6816 338.500 C 6811.593 357.004, 6808.160 371.479, 6806.394 379 C 6805.555 382.575, 6803.791 390, 6802.474 395.500 C 6798.222 413.260, 6790.601 445.254, 6787.108 460 C 6786.001 464.675, 6783.702 474.350, 6782 481.500 C 6776.941 502.743, 6774.018 515.018, 6771.999 523.500 C 6768.407 538.596, 6763.920 557.504, 6762.509 563.500 C 6761.732 566.800, 6759.752 575.125, 6758.108 582 C 6754.491 597.126, 6751.004 611.773, 6747.512 626.500 C 6744.877 637.612, 6743.616 642.916, 6738 666.500 C 6731.817 692.466, 6731.045 695.713, 6728.008 708.500 C 6726.311 715.650, 6724.286 724.200, 6723.509 727.500 C 6722.732 730.800, 6720.752 739.125, 6719.108 746 C 6715.561 760.837, 6711.883 776.284, 6709.108 788 C 6708.001 792.675, 6705.702 802.350, 6704 809.500 C 6702.298 816.650, 6700.048 826.100, 6699 830.500 C 6697.952 834.900, 6695.702 844.350, 6694 851.500 C 6689.931 868.586, 6686.257 884.068, 6684.509 891.500 C 6683.732 894.800, 6681.752 903.125, 6680.108 910 C 6678.464 916.875, 6675.968 927.337, 6674.560 933.250 C 6673.152 939.162, 6670.897 948.612, 6669.549 954.250 C 6668.201 959.887, 6666.198 968.325, 6665.097 973 C 6663.996 977.675, 6661.702 987.350, 6660 994.500 C 6658.297 1001.650, 6655.779 1012.225, 6654.404 1018 C 6648.741 1041.781, 6647.811 1045.496, 6647.328 1046.278 C 6646.445 1047.708, 6644.153 1044.981, 6643.466 1041.681 C 6643.101 1039.931, 6640.656 1030.625, 6638.032 1021 C 6635.408 1011.375, 6630.893 994.725, 6628 984 C 6625.107 973.275, 6620.607 956.625, 6618 947 C 6615.393 937.375, 6610.893 920.725, 6608 910 C 6605.107 899.275, 6600.607 882.625, 6598 873 C 6595.393 863.375, 6590.893 846.725, 6588 836 C 6585.107 825.275, 6580.607 808.625, 6578 799 C 6575.393 789.375, 6570.893 772.725, 6568 762 C 6565.107 751.275, 6560.607 734.625, 6558 725 C 6555.393 715.375, 6550.893 698.725, 6548 688 C 6541.749 664.829, 6533.600 634.689, 6531.507 627 C 6530.683 623.975, 6528.435 615.650, 6526.510 608.500 C 6524.585 601.350, 6522.335 593.025, 6521.510 590 C 6520.685 586.975, 6518.439 578.650, 6516.520 571.500 C 6514.601 564.350, 6512.337 556.025, 6511.489 553 C 6509.500 545.907, 6508.622 542.651, 6505.421 530.500 C 6503.973 525, 6502.215 518.475, 6501.516 516 C 6499.509 508.894, 6498.316 504.519, 6494.017 488.500 C 6491.803 480.250, 6489.553 471.925, 6489.017 470 C 6488.481 468.075, 6486.231 459.750, 6484.017 451.500 C 6481.803 443.250, 6479.553 434.925, 6479.017 433 C 6478.481 431.075, 6476.231 422.750, 6474.017 414.500 C 6471.803 406.250, 6469.553 397.925, 6469.017 396 C 6468.481 394.075, 6466.231 385.750, 6464.017 377.500 C 6461.803 369.250, 6459.553 360.925, 6459.017 359 C 6458.481 357.075, 6456.291 348.975, 6454.149 341 C 6447.212 315.169, 6439.788 287.611, 6438.524 283 L 6437.291 278.500 6365.875 278.243 L 6294.460 277.987 6290.604 292.243 C 6288.483 300.085, 6284.613 314.375, 6282.004 324 C 6279.395 333.625, 6274.893 350.275, 6272 361 C 6269.107 371.725, 6264.607 388.375, 6262 398 C 6256.365 418.809, 6248.245 448.913, 6242.851 469 C 6240.709 476.975, 6238.519 485.075, 6237.983 487 C 6237.447 488.925, 6235.197 497.250, 6232.983 505.500 C 6230.769 513.750, 6228.519 522.075, 6227.983 524 C 6227.447 525.925, 6225.197 534.250, 6222.983 542.500 C 6220.769 550.750, 6218.519 559.075, 6217.983 561 C 6217.447 562.925, 6215.197 571.250, 6212.983 579.500 C 6210.769 587.750, 6208.519 596.075, 6207.983 598 C 6207.447 599.925, 6205.197 608.250, 6202.983 616.500 C 6200.769 624.750, 6198.519 633.075, 6197.983 635 C 6197.447 636.925, 6195.197 645.250, 6192.983 653.500 C 6190.769 661.750, 6188.517 670.075, 6187.980 672 C 6186.893 675.892, 6180.017 701.280, 6172.001 731 C 6169.108 741.725, 6164.613 758.375, 6162.012 768 C 6159.411 777.625, 6154.487 795.850, 6151.069 808.500 C 6147.651 821.150, 6142.901 838.700, 6140.514 847.500 C 6138.127 856.300, 6133.379 873.850, 6129.962 886.500 C 6126.546 899.150, 6121.615 917.375, 6119.005 927 C 6116.396 936.625, 6111.893 953.275, 6109 964 C 6101.165 993.041, 6094.723 1016.828, 6090.503 1032.298 L 6086.738 1046.096 6085.155 1045.791 C 6084.223 1045.612, 6083.209 1043.843, 6082.690 1041.493 C 6081.783 1037.385, 6076.770 1016.171, 6072.531 998.500 C 6071.211 993, 6069.445 985.575, 6068.605 982 C 6067.030 975.293, 6062.776 957.364, 6058.404 939 C 6057.028 933.225, 6055.003 924.675, 6053.903 920 C 6052.802 915.325, 6050.826 907, 6049.512 901.500 C 6048.198 896, 6045.943 886.550, 6044.502 880.500 C 6038.818 856.646, 6035.818 844.076, 6033.526 834.500 C 6032.209 829, 6030.445 821.575, 6029.605 818 C 6028.137 811.749, 6023.996 794.288, 6020.001 777.500 C 6018.953 773.100, 6016.931 764.550, 6015.506 758.500 C 6014.081 752.450, 6012.052 743.900, 6010.997 739.500 C 6009.942 735.100, 6007.685 725.650, 6005.982 718.500 C 6000.436 695.216, 5997.931 684.710, 5994.892 672 C 5993.248 665.125, 5991.268 656.800, 5990.491 653.500 C 5989.714 650.200, 5987.689 641.650, 5985.992 634.500 C 5982.955 621.713, 5982.183 618.466, 5976 592.500 C 5974.298 585.350, 5972.004 575.675, 5970.903 571 C 5969.802 566.325, 5967.771 557.775, 5966.389 552 C 5965.008 546.225, 5962.753 536.775, 5961.379 531 C 5960.005 525.225, 5957.536 514.875, 5955.892 508 C 5954.248 501.125, 5952.268 492.800, 5951.491 489.500 C 5950.714 486.200, 5948.689 477.650, 5946.992 470.500 C 5943.955 457.713, 5943.183 454.466, 5937 428.500 C 5935.298 421.350, 5933.004 411.675, 5931.903 407 C 5930.802 402.325, 5928.799 393.887, 5927.451 388.250 C 5926.103 382.613, 5923.848 373.163, 5922.440 367.250 C 5921.032 361.337, 5918.590 351.100, 5917.012 344.500 C 5914.186 332.678, 5913.257 328.757, 5906.942 302 C 5905.190 294.575, 5903.197 286.250, 5902.514 283.500 L 5901.272 278.500 5823.228 278.244 L 5745.184 277.988 5745.718 280.244 M 2856.249 767.250 L 2856.500 1255.500 2928.250 1255.757 L 3000 1256.013 3000.068 1087.257 C 3000.105 994.440, 3000.306 910.625, 3000.515 901 C 3000.724 891.375, 3001.153 867.499, 3001.468 847.943 C 3001.783 828.386, 3002.200 811.511, 3002.396 810.443 C 3002.591 809.374, 3003.067 805.350, 3003.454 801.500 C 3011.935 717.114, 3082.166 654.903, 3169 654.859 L 3186.500 654.850 3196.500 656.517 C 3279.228 670.313, 3325.344 727.097, 3330.486 821.500 C 3330.786 827, 3331.247 926.900, 3331.512 1043.500 L 3331.992 1255.500 3403.878 1255.757 L 3475.764 1256.013 3476.353 1253.257 C 3477.148 1249.539, 3476.519 789.438, 3475.713 785 C 3475.364 783.075, 3474.575 776.550, 3473.961 770.500 C 3458.037 613.673, 3338.545 512.938, 3190.500 531.535 C 3174.074 533.598, 3169.331 534.319, 3160.500 536.096 C 3094.144 549.451, 3048.045 583.148, 3010.483 645.755 C 3006.109 653.045, 3002.074 658.858, 3001.515 658.672 L 3000.500 658.333 3000.247 468.667 L 2999.995 279 2927.996 279 L 2855.998 279 2856.249 767.250 M 3900 529.680 C 3757.319 535.051, 3660.160 596.467, 3628.186 701.500 C 3623.441 717.085, 3617.383 751.716, 3619.100 753.434 C 3619.360 753.693, 3648.356 753.960, 3683.536 754.027 L 3747.500 754.149 3750.684 753 C 3754.883 751.484, 3756.107 749.421, 3760.370 736.681 C 3781.281 674.190, 3848.542 641.690, 3934.500 652.541 C 3999.971 660.806, 4037.485 695.303, 4047.009 756 L 4048.814 767.500 4048.945 799.250 L 4049.075 831 4042.788 831.077 C 4039.329 831.119, 4035.825 831.283, 4035 831.443 C 4034.175 831.602, 4027.425 832.033, 4020 832.400 C 4012.575 832.768, 4003.800 833.272, 4000.500 833.522 C 3997.200 833.772, 3985.950 834.434, 3975.500 834.993 C 3965.050 835.553, 3952.900 836.240, 3948.500 836.520 C 3944.100 836.800, 3925.200 837.909, 3906.500 838.985 C 3853.006 842.063, 3845.685 842.647, 3817.500 846.094 C 3675.279 863.488, 3592.071 937.175, 3589.509 1048 L 3589.128 1064.500 3590.524 1075.500 C 3591.293 1081.550, 3592.119 1087.400, 3592.362 1088.500 C 3592.604 1089.600, 3593.503 1093.875, 3594.360 1098 C 3598.075 1115.894, 3604.693 1134.817, 3614.294 1155 C 3636.264 1201.184, 3687.819 1242.371, 3742.571 1257.480 C 3775.760 1266.639, 3793.241 1269.143, 3823.986 1269.143 C 3914.371 1269.143, 3988.157 1231.291, 4035.849 1160.458 C 4040.308 1153.835, 4045.316 1147.113, 4046.978 1145.521 L 4050 1142.626 4050 1199.313 L 4050 1256 4122.004 1256 L 4194.008 1256 4193.902 1007.250 C 4193.844 870.438, 4193.402 754, 4192.919 748.500 C 4182.885 634.228, 4112.248 561.184, 3988 536.597 C 3968.288 532.697, 3920.338 528.183, 3909.500 529.208 C 3908.400 529.312, 3904.125 529.524, 3900 529.680 M 5384 530.586 C 5223.038 547.427, 5121.014 648.582, 5092.603 819.500 C 5092.328 821.150, 5091.440 826.550, 5090.628 831.500 C 5068.002 969.467, 5112.076 1118.526, 5197.500 1192.945 C 5210.034 1203.865, 5236.189 1223, 5238.580 1223 C 5238.916 1223, 5240.386 1223.838, 5241.846 1224.862 C 5264.245 1240.574, 5321.799 1260.561, 5360.500 1266.067 C 5540.857 1291.727, 5699.497 1199.188, 5726.936 1052.315 L 5727.742 1048 5658.948 1048 L 5590.155 1048 5588.951 1051.750 C 5566.566 1121.468, 5479.289 1162.909, 5387.267 1147.512 C 5343.067 1140.117, 5308.723 1121.339, 5281.997 1089.956 C 5278.974 1086.405, 5276.230 1083.275, 5275.900 1083 C 5263.625 1072.770, 5242.024 1021.672, 5236.473 989.733 C 5234.186 976.573, 5232.596 948.564, 5233.692 940.752 L 5234.218 937.004 5484.859 936.752 L 5735.500 936.500 5735.500 904 C 5735.500 875.444, 5734.675 849.193, 5733.548 841.882 C 5733.346 840.572, 5732.889 836.125, 5732.532 832 C 5718.683 672.009, 5615.725 554.773, 5469.431 532.413 L 5452.500 529.826 5425 529.499 L 5397.500 529.173 5384 530.586 M 8763.500 529.663 C 8607.365 543.619, 8514.345 628.151, 8518.293 752.495 C 8520.260 814.439, 8543.087 856, 8597 895.796 C 8604.729 901.502, 8625.728 912.942, 8640.500 919.494 C 8665.375 930.528, 8684.734 936.077, 8759.500 953.603 C 8897.670 985.992, 8924.877 999.732, 8936.118 1042.803 L 8938.127 1050.500 8938.159 1060.500 C 8938.359 1122.466, 8886.562 1156.698, 8793 1156.434 L 8769.500 1156.367 8758.593 1154.665 C 8699.651 1145.464, 8663.355 1116.513, 8647.434 1066 C 8643.043 1052.070, 8642.159 1050.150, 8639.256 1048.248 L 8636.994 1046.766 8568.438 1046.249 L 8499.881 1045.731 8500.498 1054.116 C 8506.358 1133.777, 8563.923 1210.790, 8640.609 1241.562 C 8670.100 1253.395, 8714.397 1264.477, 8746 1267.926 C 8751.225 1268.497, 8757.525 1269.220, 8760 1269.534 C 8784.880 1272.690, 8836.727 1269.889, 8871.500 1263.509 C 9019.230 1236.407, 9105.732 1133.292, 9081.651 1013 C 9076.792 988.724, 9068.928 968.163, 9057.940 951 L 9053.779 944.500 9043.140 935.760 C 9037.288 930.953, 9030.475 925.205, 9028 922.986 C 9008.513 905.517, 8972.531 882.892, 8956.556 878.063 C 8954.875 877.555, 8949.900 875.769, 8945.500 874.095 C 8935.069 870.125, 8914.722 864.274, 8893.500 859.140 C 8695.235 811.178, 8681.861 805.601, 8667.826 765.022 C 8647.249 705.534, 8688.528 654.102, 8765.352 643.506 L 8775.500 642.106 8793 642.464 L 8810.500 642.823 8822.500 644.930 C 8857.893 651.146, 8880.504 661.634, 8899.534 680.665 C 8914.686 695.817, 8926.013 718.754, 8930.688 743.750 L 8932.418 753 9000.150 753 C 9041.078 753, 9068.111 752.630, 9068.460 752.065 C 9069.172 750.912, 9066.515 728.366, 9064.385 717.500 C 9058.185 685.863, 9041.924 648.397, 9025.732 628.440 C 8973.289 563.806, 8891.518 529.110, 8792 529.267 C 8778.525 529.288, 8765.700 529.467, 8763.500 529.663 M 7288.977 530.311 C 7288.715 530.549, 7284 531.024, 7278.500 531.367 C 7152.177 539.255, 7057.726 610.185, 7010.003 733 C 7007.118 740.425, 7003.951 748.525, 7002.966 751 C 6994.229 772.947, 6983.851 818.759, 6980.540 850 C 6980.219 853.025, 6979.701 857.300, 6979.389 859.500 C 6979.077 861.700, 6978.667 877.225, 6978.478 894 L 6978.135 924.500 6979.508 938.500 C 6983.205 976.213, 6988.068 1002.009, 6998.644 1040 C 7007.262 1070.962, 7021.293 1104.122, 7035.455 1127 C 7055.462 1159.319, 7074.742 1180.676, 7107.704 1207.030 C 7133.823 1227.913, 7186.288 1251.773, 7226.368 1260.996 C 7259.721 1268.671, 7307.295 1272.230, 7340.087 1269.504 C 7417.987 1263.026, 7474.112 1243.351, 7522.500 1205.559 C 7574.078 1165.274, 7609.805 1109.876, 7619.434 1055.250 L 7620.712 1048 7551.923 1048 L 7483.135 1048 7482.470 1050.250 C 7476.621 1070.060, 7452.236 1103.819, 7435.424 1115.384 C 7408.162 1134.136, 7384.612 1143.760, 7355.500 1148.044 C 7351.100 1148.692, 7346.375 1149.399, 7345 1149.616 C 7331.723 1151.710, 7297.544 1150.383, 7277.500 1146.995 C 7204.762 1134.700, 7152.060 1082.867, 7133.124 1005 C 7128.648 986.592, 7126.106 960.806, 7126.840 941.250 L 7127 937 7378.023 937 L 7629.045 937 7628.903 899.750 C 7628.401 768.546, 7598.095 681.973, 7528.692 613.482 C 7521.436 606.322, 7513.700 599.122, 7511.500 597.482 C 7509.301 595.842, 7505.234 592.680, 7502.464 590.455 C 7463.105 558.852, 7410.725 538.915, 7347.500 531.471 C 7341.305 530.742, 7289.633 529.718, 7288.977 530.311 M 4683 531.609 C 4681.625 531.821, 4676.450 532.490, 4671.500 533.096 C 4600.903 541.736, 4539.993 579.030, 4501.417 637.234 C 4492.543 650.624, 4489.745 654.813, 4486.617 659.387 L 4485.327 661.274 4483.413 656.887 L 4481.500 652.500 4481.241 602.183 L 4480.982 551.866 4479.424 548.854 C 4478.544 547.151, 4476.342 545.205, 4474.358 544.376 L 4470.848 542.910 4406.674 543.205 L 4342.500 543.500 4340.165 544.830 C 4338.881 545.562, 4337.194 547.685, 4336.415 549.548 L 4335 552.936 4335 1020.468 L 4335 1488 4408 1488 L 4481 1488 4481 1314.500 L 4481 1141 4483.766 1141 L 4486.533 1141 4489.690 1146.250 C 4491.427 1149.138, 4495.501 1154.650, 4498.745 1158.500 C 4501.988 1162.350, 4508.643 1170.450, 4513.532 1176.500 C 4535.200 1203.308, 4547.005 1214.352, 4571.675 1230.894 C 4599.523 1249.567, 4628.468 1260.875, 4664.500 1267.160 L 4677.500 1269.428 4705.500 1269.448 L 4733.500 1269.469 4748 1267.188 C 4817.231 1256.299, 4860.995 1235.295, 4903.501 1192.556 C 4964.327 1131.396, 4995.492 1052.101, 5004.533 935.500 L 5005.851 918.500 5005.456 890 C 5005.239 874.325, 5004.863 860.375, 5004.620 859 C 5004.377 857.625, 5003.884 852.675, 5003.525 848 C 4998.887 787.667, 4972.605 699.986, 4948.584 664.706 C 4947.163 662.619, 4946 660.738, 4946 660.526 C 4946 659.656, 4933.348 641.033, 4928.658 635 C 4884.536 578.245, 4827.406 546.125, 4748 533.431 L 4737.500 531.752 4711.500 531.488 C 4697.200 531.343, 4684.375 531.397, 4683 531.609 M 5391.021 650.560 C 5324.260 660.046, 5274.099 700.679, 5249.743 765 C 5241.894 785.730, 5235 814.723, 5235 827.007 L 5235 833 5414 833 C 5526.285 833, 5593 832.646, 5593 832.051 C 5593 831.529, 5592.094 826.241, 5590.987 820.301 C 5589.879 814.360, 5588.271 805.675, 5587.412 801 C 5570.158 707.092, 5508.555 651.330, 5420 649.462 L 5401.500 649.071 5391.021 650.560 M 7289.589 651.033 C 7199.682 661.268, 7135.957 729.781, 7129.409 823.250 L 7128.726 833 7306.363 833 L 7484 833 7483.999 830.250 C 7483.951 721.036, 7394.998 639.035, 7289.589 651.033 M 4647 656.069 C 4584.625 665.276, 4534.958 702.298, 4510.252 758 C 4508.911 761.025, 4507.001 765.300, 4506.009 767.500 C 4461.631 865.916, 4475.077 1009.074, 4535.408 1080.500 C 4562.825 1112.960, 4596.059 1132.639, 4638.744 1141.691 L 4651.500 1144.396 4673 1144.377 L 4694.500 1144.359 4706 1142.079 C 4761.189 1131.136, 4802.542 1098.924, 4826.012 1048.595 C 4840.800 1016.884, 4853.334 972.117, 4856.558 939.500 C 4856.938 935.650, 4857.444 931.600, 4857.683 930.500 C 4865.265 895.513, 4851.150 809.147, 4829.628 758.837 C 4797.929 684.737, 4726.207 644.378, 4647 656.069 M 8065.591 656.206 C 7954.887 664.094, 7881.054 781.229, 7893.328 929.500 C 7902.872 1044.800, 7960.510 1124.242, 8047.554 1142.072 L 8057.500 1144.109 8077.282 1144.692 L 8097.063 1145.275 8106.282 1144.050 C 8197.442 1131.927, 8256.010 1057.927, 8266.990 941 C 8267.583 934.675, 8268.275 927.700, 8268.526 925.500 C 8269.447 917.422, 8269.076 871.080, 8268.006 860.453 C 8264.617 826.830, 8256.649 794.417, 8245.364 768.349 C 8244.614 766.616, 8244 764.927, 8244 764.595 C 8244 762.441, 8230.636 737.752, 8224.501 728.574 C 8189.711 676.523, 8134.341 651.307, 8065.591 656.206 M 1270 913.619 C 1213.696 920.734, 1175.017 934.941, 1139.351 961.605 C 1105.320 987.048, 1076.717 1024.787, 1058.707 1068.009 C 1049.647 1089.750, 1045.703 1104.824, 1042.489 1130 L 1041.148 1140.500 1041.485 1161 L 1041.823 1181.500 1043.909 1195.073 C 1065.569 1335.950, 1201.074 1428.077, 1340 1396.379 C 1410.381 1380.320, 1461.493 1342.679, 1498.425 1279.706 C 1520.874 1241.428, 1529.212 1206.190, 1528.526 1152.500 L 1528.181 1125.500 1526.655 1116.500 C 1510.308 1020.110, 1442.852 946.314, 1348.007 921.061 C 1338.061 918.413, 1333.595 917.455, 1319.500 914.946 C 1313.275 913.838, 1276.145 912.843, 1270 913.619 M 4025 935.084 C 4019.225 935.432, 4008.650 936.019, 4001.500 936.387 C 3994.350 936.756, 3985.800 937.261, 3982.500 937.509 C 3979.200 937.756, 3972.225 938.195, 3967 938.483 C 3949.239 939.462, 3923.520 941.022, 3917.500 941.486 C 3914.200 941.741, 3908.125 942.202, 3904 942.512 C 3871.397 944.960, 3857.327 946.428, 3847.258 948.435 C 3842.623 949.359, 3825.002 954.322, 3811.226 958.584 C 3803.375 961.013, 3796.370 963, 3795.659 963 C 3791.936 963, 3776.005 972.873, 3767.254 980.604 C 3744.666 1000.558, 3735.281 1024.728, 3737.151 1058.124 L 3737.802 1069.747 3740.462 1078.624 C 3754.810 1126.507, 3802.416 1153.378, 3870.018 1151.752 L 3889.500 1151.283 3901.907 1149.055 C 3942.868 1141.701, 3978.411 1123.944, 4004 1098.048 C 4012.305 1089.644, 4013.491 1088.259, 4020.305 1079 C 4039.983 1052.263, 4050.709 1009.700, 4049.411 963.500 C 4049.288 959.100, 4049.078 951.470, 4048.946 946.544 C 4048.813 941.618, 4048.488 936.758, 4048.223 935.745 L 4047.741 933.903 4041.621 934.177 C 4038.254 934.328, 4030.775 934.736, 4025 935.084" stroke="none" fill="#080808" fill-rule="evenodd"/><path d="M 505 57.723 C 487.707 58.315, 459.172 61.751, 437 65.910 C 338.696 84.352, 261.638 121.867, 191.566 185.400 C 161.118 213.006, 130.732 247.144, 109.004 278.157 C 59.933 348.199, 30.299 427.230, 23.571 506 C 21.003 536.063, 21.021 533.552, 20.374 957 L 19.761 1358.500 20.856 1366.147 C 21.459 1370.354, 22.932 1376.417, 24.132 1379.622 L 26.312 1385.449 31.204 1390.622 C 36.774 1396.512, 42.781 1399.472, 53.343 1401.531 L 60.500 1402.927 384.528 1402.966 L 708.557 1403.006 714.447 1401.472 C 723.445 1399.128, 731.546 1394.320, 737.331 1387.889 C 743.542 1380.987, 741.265 1385.334, 770 1325.500 C 775.500 1314.046, 793.521 1277.594, 857.500 1148.500 C 873.310 1116.600, 898.284 1066.200, 912.997 1036.500 C 943.042 975.852, 980.096 901.066, 1022 816.500 C 1037.534 785.150, 1062.284 735.200, 1077 705.500 C 1091.716 675.800, 1116.466 625.850, 1132 594.500 C 1147.534 563.150, 1172.284 513.200, 1187 483.500 C 1201.716 453.800, 1226.466 403.850, 1242 372.500 C 1257.534 341.150, 1282.284 291.200, 1296.999 261.500 C 1311.714 231.800, 1336.910 180.950, 1352.991 148.500 C 1393.737 66.275, 1391.400 71.401, 1391.115 64.859 L 1391 62.217 1386.750 60.430 L 1382.500 58.644 1146.500 58.312 C 681.932 57.660, 511.401 57.503, 505 57.723 M 2326 262.667 C 2240.140 268.463, 2157.831 297.183, 2105.293 339.677 C 2038.679 393.556, 2006 462.574, 2006 549.382 L 2006 568.552 2009.046 585.933 C 2016.142 626.431, 2025.225 651.393, 2042.641 678.260 C 2056.558 699.729, 2081.585 726.261, 2100 739.066 C 2101.925 740.405, 2103.725 741.740, 2104 742.034 C 2108.058 746.368, 2139.966 765.444, 2157 773.718 C 2199.541 794.384, 2236.221 805.340, 2329 825.093 C 2439.592 848.638, 2474.915 859.177, 2512.217 879.758 C 2549.473 900.313, 2571.812 931.101, 2577.654 969.941 L 2579.242 980.500 2578.671 993 C 2575.345 1065.781, 2531.861 1111.125, 2444.500 1132.910 C 2399.605 1144.105, 2351.708 1145.476, 2304.500 1136.916 C 2204.165 1118.723, 2148.019 1075.248, 2131.556 1003 C 2129.344 993.293, 2128.348 991.378, 2124.171 988.797 L 2120.717 986.662 2062.108 986.309 C 2029.874 986.116, 2000.360 986.260, 1996.521 986.630 L 1989.543 987.303 1986.771 990.075 L 1984 992.846 1984.033 999.173 C 1984.082 1008.792, 1987.093 1029.956, 1990.598 1045.321 C 2022.164 1183.717, 2159.861 1270.390, 2351.500 1272.491 C 2568.693 1274.872, 2710.493 1178.576, 2728.457 1016.500 L 2729.898 1003.500 2729.532 974.500 L 2729.166 945.500 2726.636 930 C 2710.335 830.152, 2649.113 767.955, 2527.716 727.912 C 2492.139 716.177, 2461.934 708.754, 2373.500 690.014 C 2335.195 681.897, 2311.504 676.202, 2288 669.462 C 2211.931 647.647, 2171.500 613.556, 2160.375 561.846 L 2158.580 553.500 2158.610 535.500 L 2158.641 517.500 2160.794 508.377 C 2175.998 443.979, 2231.732 404.462, 2321.472 394.454 L 2333.500 393.113 2361.500 393.441 L 2389.500 393.769 2401.500 395.404 C 2491.534 407.666, 2547.361 454.004, 2564.127 530.388 C 2566.496 541.184, 2567.052 542.284, 2571.757 545.481 L 2575.464 548 2641.121 548 L 2706.778 548 2709.139 546.082 L 2711.500 544.164 2711.407 535.332 C 2711.238 519.397, 2706.169 491.502, 2699.558 470.124 C 2663.880 354.761, 2553.317 276.627, 2408.500 264.437 C 2404.650 264.113, 2400.375 263.622, 2399 263.346 C 2395.936 262.730, 2333.641 262.151, 2326 262.667 M 7753.876 278.815 C 7752.021 279.742, 7749.911 281.745, 7749.188 283.267 L 7747.874 286.035 7747.806 768.613 L 7747.737 1251.192 7750.391 1253.846 L 7753.045 1256.500 7818.273 1256.680 C 7886.624 1256.868, 7888.888 1256.736, 7890.853 1252.424 L 7892 1249.906 7892 1195.453 L 7892 1141 7893.500 1140.850 C 7894.325 1140.767, 7895.404 1140.655, 7895.897 1140.600 C 7897.002 1140.477, 7903.606 1149.380, 7912.185 1162.557 C 7925.797 1183.467, 7947.582 1206.970, 7963.612 1218.041 C 8003.805 1245.800, 8029.807 1257.188, 8070.500 1264.853 C 8225.197 1293.995, 8359.773 1201.383, 8400.870 1037.500 C 8414.939 981.395, 8422.491 884.587, 8415.614 848.500 C 8415.404 847.400, 8414.913 843.125, 8414.522 839 C 8400.795 694.142, 8325.811 582.122, 8218.500 546.160 C 8185.949 535.251, 8161.120 531.488, 8122.500 531.610 L 8096.500 531.692 8083.500 533.322 C 8067.351 535.347, 8065.862 535.604, 8053.339 538.537 C 7995.705 552.033, 7944.479 588.856, 7909.674 641.809 C 7906.025 647.361, 7900.668 654.213, 7897.770 657.036 L 7892.500 662.169 7892 473.335 L 7891.500 284.500 7890.072 282.350 C 7889.287 281.168, 7887.198 279.511, 7885.431 278.668 L 7882.217 277.136 7819.734 277.133 L 7757.251 277.130 7753.876 278.815 M 5745.718 280.244 C 5746.273 282.592, 5752.281 304.893, 5754.003 311 C 5754.546 312.925, 5756.119 318.775, 5757.500 324 C 5758.881 329.225, 5760.456 335.075, 5761 337 C 5761.544 338.925, 5763.119 344.775, 5764.500 350 C 5765.881 355.225, 5767.456 361.075, 5768 363 C 5768.544 364.925, 5770.119 370.775, 5771.500 376 C 5772.881 381.225, 5774.442 387.075, 5774.971 389 C 5775.499 390.925, 5777.075 396.775, 5778.473 402 C 5779.871 407.225, 5781.448 413.075, 5781.979 415 C 5782.510 416.925, 5784.076 422.775, 5785.459 428 C 5786.843 433.225, 5789.493 443.125, 5791.350 450 C 5793.206 456.875, 5796.416 468.800, 5798.481 476.500 C 5800.547 484.200, 5803.697 495.900, 5805.481 502.500 C 5807.266 509.100, 5810.417 520.800, 5812.484 528.500 C 5814.552 536.200, 5817.954 548.800, 5820.045 556.500 C 5822.136 564.200, 5825.714 577.475, 5827.995 586 C 5830.277 594.525, 5833.429 606.225, 5835 612 C 5836.571 617.775, 5839.721 629.475, 5842 638 C 5844.279 646.525, 5847.428 658.225, 5848.997 664 C 5850.566 669.775, 5853.968 682.375, 5856.557 692 C 5859.146 701.625, 5862.726 714.900, 5864.514 721.500 C 5866.301 728.100, 5869.453 739.800, 5871.519 747.500 C 5873.584 755.200, 5876.734 766.900, 5878.519 773.500 C 5880.303 780.100, 5883.453 791.800, 5885.519 799.500 C 5891.589 822.129, 5895.946 838.251, 5897.003 842 C 5897.546 843.925, 5899.119 849.775, 5900.500 855 C 5901.881 860.225, 5903.456 866.075, 5904 868 C 5904.544 869.925, 5906.119 875.775, 5907.500 881 C 5908.881 886.225, 5910.456 892.075, 5911 894 C 5911.544 895.925, 5913.119 901.775, 5914.500 907 C 5915.881 912.225, 5917.442 918.075, 5917.971 920 C 5918.499 921.925, 5920.013 927.550, 5921.336 932.500 C 5926.906 953.350, 5931.438 970.242, 5934.481 981.500 C 5936.266 988.100, 5939.416 999.800, 5941.481 1007.500 C 5943.547 1015.200, 5946.697 1026.900, 5948.481 1033.500 C 5950.266 1040.100, 5953.417 1051.800, 5955.484 1059.500 C 5957.552 1067.200, 5960.954 1079.800, 5963.045 1087.500 C 5965.136 1095.200, 5968.714 1108.475, 5970.995 1117 C 5973.277 1125.525, 5976.429 1137.225, 5978 1143 C 5979.571 1148.775, 5982.725 1160.475, 5985.009 1169 C 5990.420 1189.193, 5995.261 1207.157, 5999.964 1224.500 C 6002.052 1232.200, 6004.818 1242.438, 6006.111 1247.250 L 6008.461 1256 6080.588 1256 L 6152.714 1256 6160.255 1229.750 C 6164.403 1215.313, 6182.279 1152.875, 6199.981 1091 C 6217.683 1029.125, 6249.657 917.525, 6271.035 843 C 6292.413 768.475, 6314.223 692.200, 6319.502 673.500 C 6335.331 617.426, 6364.066 517.600, 6364.505 517.162 C 6366.214 515.453, 6368.366 520.750, 6374.237 541.123 C 6382.518 569.862, 6441.830 777.133, 6477.217 901 C 6491.594 951.325, 6520.282 1051.675, 6540.967 1124 L 6578.578 1255.500 6650.975 1255.500 L 6723.371 1255.500 6726.178 1245 C 6727.723 1239.225, 6730.621 1228.425, 6732.619 1221 C 6737.055 1204.512, 6740.315 1192.369, 6743.489 1180.500 C 6744.813 1175.550, 6746.630 1168.800, 6747.527 1165.500 C 6748.424 1162.200, 6749.995 1156.350, 6751.018 1152.500 C 6753.265 1144.048, 6756.363 1132.475, 6758.380 1125 C 6759.196 1121.975, 6760.771 1116.125, 6761.880 1112 C 6762.989 1107.875, 6764.594 1101.912, 6765.448 1098.750 C 6766.302 1095.588, 6767.698 1090.412, 6768.552 1087.250 C 6769.406 1084.088, 6771.011 1078.125, 6772.118 1074 C 6773.226 1069.875, 6775.171 1062.675, 6776.441 1058 C 6777.710 1053.325, 6780.383 1043.425, 6782.381 1036 C 6784.379 1028.575, 6787.591 1016.650, 6789.519 1009.500 C 6791.446 1002.350, 6794.596 990.650, 6796.519 983.500 C 6798.441 976.350, 6801.591 964.650, 6803.519 957.500 C 6805.446 950.350, 6808.596 938.650, 6810.519 931.500 C 6815.223 914.003, 6819.807 897.022, 6825.500 876 C 6831.193 854.978, 6835.777 837.997, 6840.481 820.500 C 6842.404 813.350, 6845.554 801.650, 6847.481 794.500 C 6849.409 787.350, 6852.559 775.650, 6854.481 768.500 C 6856.404 761.350, 6859.554 749.650, 6861.481 742.500 C 6863.409 735.350, 6866.559 723.650, 6868.481 716.500 C 6870.404 709.350, 6873.554 697.650, 6875.481 690.500 C 6877.409 683.350, 6880.559 671.650, 6882.481 664.500 C 6884.404 657.350, 6887.554 645.650, 6889.481 638.500 C 6891.409 631.350, 6894.559 619.650, 6896.481 612.500 C 6898.404 605.350, 6901.554 593.650, 6903.481 586.500 C 6908.628 567.409, 6912.915 551.437, 6915.021 543.500 C 6917.161 535.435, 6920.238 523.939, 6922.380 516 C 6923.196 512.975, 6924.771 507.125, 6925.880 503 C 6926.989 498.875, 6928.564 493.025, 6929.380 490 C 6930.196 486.975, 6931.771 481.125, 6932.880 477 C 6933.989 472.875, 6935.564 467.025, 6936.380 464 C 6937.196 460.975, 6938.771 455.125, 6939.880 451 C 6942.490 441.289, 6944.301 434.583, 6947.307 423.500 C 6948.650 418.550, 6951.383 408.425, 6953.381 401 C 6955.379 393.575, 6958.591 381.650, 6960.519 374.500 C 6962.446 367.350, 6965.596 355.650, 6967.519 348.500 C 6969.441 341.350, 6972.591 329.650, 6974.519 322.500 C 6976.446 315.350, 6979.652 303.425, 6981.641 296 C 6983.631 288.575, 6985.479 281.712, 6985.746 280.750 L 6986.233 279 6908.136 279 L 6830.038 279 6829.528 281.250 C 6828.798 284.466, 6823.251 308.046, 6821 317.500 C 6819.952 321.900, 6817.702 331.350, 6816 338.500 C 6811.593 357.004, 6808.160 371.479, 6806.394 379 C 6805.555 382.575, 6803.791 390, 6802.474 395.500 C 6798.222 413.260, 6790.601 445.254, 6787.108 460 C 6786.001 464.675, 6783.702 474.350, 6782 481.500 C 6776.941 502.743, 6774.018 515.018, 6771.999 523.500 C 6768.407 538.596, 6763.920 557.504, 6762.509 563.500 C 6761.732 566.800, 6759.752 575.125, 6758.108 582 C 6754.491 597.126, 6751.004 611.773, 6747.512 626.500 C 6744.877 637.612, 6743.616 642.916, 6738 666.500 C 6731.817 692.466, 6731.045 695.713, 6728.008 708.500 C 6726.311 715.650, 6724.286 724.200, 6723.509 727.500 C 6722.732 730.800, 6720.752 739.125, 6719.108 746 C 6715.561 760.837, 6711.883 776.284, 6709.108 788 C 6708.001 792.675, 6705.702 802.350, 6704 809.500 C 6702.298 816.650, 6700.048 826.100, 6699 830.500 C 6697.952 834.900, 6695.702 844.350, 6694 851.500 C 6689.931 868.586, 6686.257 884.068, 6684.509 891.500 C 6683.732 894.800, 6681.752 903.125, 6680.108 910 C 6678.464 916.875, 6675.968 927.337, 6674.560 933.250 C 6673.152 939.162, 6670.897 948.612, 6669.549 954.250 C 6668.201 959.887, 6666.198 968.325, 6665.097 973 C 6663.996 977.675, 6661.702 987.350, 6660 994.500 C 6658.297 1001.650, 6655.779 1012.225, 6654.404 1018 C 6648.741 1041.781, 6647.811 1045.496, 6647.328 1046.278 C 6646.445 1047.708, 6644.153 1044.981, 6643.466 1041.681 C 6643.101 1039.931, 6640.656 1030.625, 6638.032 1021 C 6635.408 1011.375, 6630.893 994.725, 6628 984 C 6625.107 973.275, 6620.607 956.625, 6618 947 C 6615.393 937.375, 6610.893 920.725, 6608 910 C 6605.107 899.275, 6600.607 882.625, 6598 873 C 6595.393 863.375, 6590.893 846.725, 6588 836 C 6585.107 825.275, 6580.607 808.625, 6578 799 C 6575.393 789.375, 6570.893 772.725, 6568 762 C 6565.107 751.275, 6560.607 734.625, 6558 725 C 6555.393 715.375, 6550.893 698.725, 6548 688 C 6541.749 664.829, 6533.600 634.689, 6531.507 627 C 6530.683 623.975, 6528.435 615.650, 6526.510 608.500 C 6524.585 601.350, 6522.335 593.025, 6521.510 590 C 6520.685 586.975, 6518.439 578.650, 6516.520 571.500 C 6514.601 564.350, 6512.337 556.025, 6511.489 553 C 6509.500 545.907, 6508.622 542.651, 6505.421 530.500 C 6503.973 525, 6502.215 518.475, 6501.516 516 C 6499.509 508.894, 6498.316 504.519, 6494.017 488.500 C 6491.803 480.250, 6489.553 471.925, 6489.017 470 C 6488.481 468.075, 6486.231 459.750, 6484.017 451.500 C 6481.803 443.250, 6479.553 434.925, 6479.017 433 C 6478.481 431.075, 6476.231 422.750, 6474.017 414.500 C 6471.803 406.250, 6469.553 397.925, 6469.017 396 C 6468.481 394.075, 6466.231 385.750, 6464.017 377.500 C 6461.803 369.250, 6459.553 360.925, 6459.017 359 C 6458.481 357.075, 6456.291 348.975, 6454.149 341 C 6447.212 315.169, 6439.788 287.611, 6438.524 283 L 6437.291 278.500 6365.875 278.243 L 6294.460 277.987 6290.604 292.243 C 6288.483 300.085, 6284.613 314.375, 6282.004 324 C 6279.395 333.625, 6274.893 350.275, 6272 361 C 6269.107 371.725, 6264.607 388.375, 6262 398 C 6256.365 418.809, 6248.245 448.913, 6242.851 469 C 6240.709 476.975, 6238.519 485.075, 6237.983 487 C 6237.447 488.925, 6235.197 497.250, 6232.983 505.500 C 6230.769 513.750, 6228.519 522.075, 6227.983 524 C 6227.447 525.925, 6225.197 534.250, 6222.983 542.500 C 6220.769 550.750, 6218.519 559.075, 6217.983 561 C 6217.447 562.925, 6215.197 571.250, 6212.983 579.500 C 6210.769 587.750, 6208.519 596.075, 6207.983 598 C 6207.447 599.925, 6205.197 608.250, 6202.983 616.500 C 6200.769 624.750, 6198.519 633.075, 6197.983 635 C 6197.447 636.925, 6195.197 645.250, 6192.983 653.500 C 6190.769 661.750, 6188.517 670.075, 6187.980 672 C 6186.893 675.892, 6180.017 701.280, 6172.001 731 C 6169.108 741.725, 6164.613 758.375, 6162.012 768 C 6159.411 777.625, 6154.487 795.850, 6151.069 808.500 C 6147.651 821.150, 6142.901 838.700, 6140.514 847.500 C 6138.127 856.300, 6133.379 873.850, 6129.962 886.500 C 6126.546 899.150, 6121.615 917.375, 6119.005 927 C 6116.396 936.625, 6111.893 953.275, 6109 964 C 6101.165 993.041, 6094.723 1016.828, 6090.503 1032.298 L 6086.738 1046.096 6085.155 1045.791 C 6084.223 1045.612, 6083.209 1043.843, 6082.690 1041.493 C 6081.783 1037.385, 6076.770 1016.171, 6072.531 998.500 C 6071.211 993, 6069.445 985.575, 6068.605 982 C 6067.030 975.293, 6062.776 957.364, 6058.404 939 C 6057.028 933.225, 6055.003 924.675, 6053.903 920 C 6052.802 915.325, 6050.826 907, 6049.512 901.500 C 6048.198 896, 6045.943 886.550, 6044.502 880.500 C 6038.818 856.646, 6035.818 844.076, 6033.526 834.500 C 6032.209 829, 6030.445 821.575, 6029.605 818 C 6028.137 811.749, 6023.996 794.288, 6020.001 777.500 C 6018.953 773.100, 6016.931 764.550, 6015.506 758.500 C 6014.081 752.450, 6012.052 743.900, 6010.997 739.500 C 6009.942 735.100, 6007.685 725.650, 6005.982 718.500 C 6000.436 695.216, 5997.931 684.710, 5994.892 672 C 5993.248 665.125, 5991.268 656.800, 5990.491 653.500 C 5989.714 650.200, 5987.689 641.650, 5985.992 634.500 C 5982.955 621.713, 5982.183 618.466, 5976 592.500 C 5974.298 585.350, 5972.004 575.675, 5970.903 571 C 5969.802 566.325, 5967.771 557.775, 5966.389 552 C 5965.008 546.225, 5962.753 536.775, 5961.379 531 C 5960.005 525.225, 5957.536 514.875, 5955.892 508 C 5954.248 501.125, 5952.268 492.800, 5951.491 489.500 C 5950.714 486.200, 5948.689 477.650, 5946.992 470.500 C 5943.955 457.713, 5943.183 454.466, 5937 428.500 C 5935.298 421.350, 5933.004 411.675, 5931.903 407 C 5930.802 402.325, 5928.799 393.887, 5927.451 388.250 C 5926.103 382.613, 5923.848 373.163, 5922.440 367.250 C 5921.032 361.337, 5918.590 351.100, 5917.012 344.500 C 5914.186 332.678, 5913.257 328.757, 5906.942 302 C 5905.190 294.575, 5903.197 286.250, 5902.514 283.500 L 5901.272 278.500 5823.228 278.244 L 5745.184 277.988 5745.718 280.244 M 2856.249 767.250 L 2856.500 1255.500 2928.250 1255.757 L 3000 1256.013 3000.068 1087.257 C 3000.105 994.440, 3000.306 910.625, 3000.515 901 C 3000.724 891.375, 3001.153 867.499, 3001.468 847.943 C 3001.783 828.386, 3002.200 811.511, 3002.396 810.443 C 3002.591 809.374, 3003.067 805.350, 3003.454 801.500 C 3011.935 717.114, 3082.166 654.903, 3169 654.859 L 3186.500 654.850 3196.500 656.517 C 3279.228 670.313, 3325.344 727.097, 3330.486 821.500 C 3330.786 827, 3331.247 926.900, 3331.512 1043.500 L 3331.992 1255.500 3403.878 1255.757 L 3475.764 1256.013 3476.353 1253.257 C 3477.148 1249.539, 3476.519 789.438, 3475.713 785 C 3475.364 783.075, 3474.575 776.550, 3473.961 770.500 C 3458.037 613.673, 3338.545 512.938, 3190.500 531.535 C 3174.074 533.598, 3169.331 534.319, 3160.500 536.096 C 3094.144 549.451, 3048.045 583.148, 3010.483 645.755 C 3006.109 653.045, 3002.074 658.858, 3001.515 658.672 L 3000.500 658.333 3000.247 468.667 L 2999.995 279 2927.996 279 L 2855.998 279 2856.249 767.250 M 3900 529.680 C 3757.319 535.051, 3660.160 596.467, 3628.186 701.500 C 3623.441 717.085, 3617.383 751.716, 3619.100 753.434 C 3619.360 753.693, 3648.356 753.960, 3683.536 754.027 L 3747.500 754.149 3750.684 753 C 3754.883 751.484, 3756.107 749.421, 3760.370 736.681 C 3781.281 674.190, 3848.542 641.690, 3934.500 652.541 C 3999.971 660.806, 4037.485 695.303, 4047.009 756 L 4048.814 767.500 4048.945 799.250 L 4049.075 831 4042.788 831.077 C 4039.329 831.119, 4035.825 831.283, 4035 831.443 C 4034.175 831.602, 4027.425 832.033, 4020 832.400 C 4012.575 832.768, 4003.800 833.272, 4000.500 833.522 C 3997.200 833.772, 3985.950 834.434, 3975.500 834.993 C 3965.050 835.553, 3952.900 836.240, 3948.500 836.520 C 3944.100 836.800, 3925.200 837.909, 3906.500 838.985 C 3853.006 842.063, 3845.685 842.647, 3817.500 846.094 C 3675.279 863.488, 3592.071 937.175, 3589.509 1048 L 3589.128 1064.500 3590.524 1075.500 C 3591.293 1081.550, 3592.119 1087.400, 3592.362 1088.500 C 3592.604 1089.600, 3593.503 1093.875, 3594.360 1098 C 3598.075 1115.894, 3604.693 1134.817, 3614.294 1155 C 3636.264 1201.184, 3687.819 1242.371, 3742.571 1257.480 C 3775.760 1266.639, 3793.241 1269.143, 3823.986 1269.143 C 3914.371 1269.143, 3988.157 1231.291, 4035.849 1160.458 C 4040.308 1153.835, 4045.316 1147.113, 4046.978 1145.521 L 4050 1142.626 4050 1199.313 L 4050 1256 4122.004 1256 L 4194.008 1256 4193.902 1007.250 C 4193.844 870.438, 4193.402 754, 4192.919 748.500 C 4182.885 634.228, 4112.248 561.184, 3988 536.597 C 3968.288 532.697, 3920.338 528.183, 3909.500 529.208 C 3908.400 529.312, 3904.125 529.524, 3900 529.680 M 5384 530.586 C 5223.038 547.427, 5121.014 648.582, 5092.603 819.500 C 5092.328 821.150, 5091.440 826.550, 5090.628 831.500 C 5068.002 969.467, 5112.076 1118.526, 5197.500 1192.945 C 5210.034 1203.865, 5236.189 1223, 5238.580 1223 C 5238.916 1223, 5240.386 1223.838, 5241.846 1224.862 C 5264.245 1240.574, 5321.799 1260.561, 5360.500 1266.067 C 5540.857 1291.727, 5699.497 1199.188, 5726.936 1052.315 L 5727.742 1048 5658.948 1048 L 5590.155 1048 5588.951 1051.750 C 5566.566 1121.468, 5479.289 1162.909, 5387.267 1147.512 C 5343.067 1140.117, 5308.723 1121.339, 5281.997 1089.956 C 5278.974 1086.405, 5276.230 1083.275, 5275.900 1083 C 5263.625 1072.770, 5242.024 1021.672, 5236.473 989.733 C 5234.186 976.573, 5232.596 948.564, 5233.692 940.752 L 5234.218 937.004 5484.859 936.752 L 5735.500 936.500 5735.500 904 C 5735.500 875.444, 5734.675 849.193, 5733.548 841.882 C 5733.346 840.572, 5732.889 836.125, 5732.532 832 C 5718.683 672.009, 5615.725 554.773, 5469.431 532.413 L 5452.500 529.826 5425 529.499 L 5397.500 529.173 5384 530.586 M 8763.500 529.663 C 8607.365 543.619, 8514.345 628.151, 8518.293 752.495 C 8520.260 814.439, 8543.087 856, 8597 895.796 C 8604.729 901.502, 8625.728 912.942, 8640.500 919.494 C 8665.375 930.528, 8684.734 936.077, 8759.500 953.603 C 8897.670 985.992, 8924.877 999.732, 8936.118 1042.803 L 8938.127 1050.500 8938.159 1060.500 C 8938.359 1122.466, 8886.562 1156.698, 8793 1156.434 L 8769.500 1156.367 8758.593 1154.665 C 8699.651 1145.464, 8663.355 1116.513, 8647.434 1066 C 8643.043 1052.070, 8642.159 1050.150, 8639.256 1048.248 L 8636.994 1046.766 8568.438 1046.249 L 8499.881 1045.731 8500.498 1054.116 C 8506.358 1133.777, 8563.923 1210.790, 8640.609 1241.562 C 8670.100 1253.395, 8714.397 1264.477, 8746 1267.926 C 8751.225 1268.497, 8757.525 1269.220, 8760 1269.534 C 8784.880 1272.690, 8836.727 1269.889, 8871.500 1263.509 C 9019.230 1236.407, 9105.732 1133.292, 9081.651 1013 C 9076.792 988.724, 9068.928 968.163, 9057.940 951 L 9053.779 944.500 9043.140 935.760 C 9037.288 930.953, 9030.475 925.205, 9028 922.986 C 9008.513 905.517, 8972.531 882.892, 8956.556 878.063 C 8954.875 877.555, 8949.900 875.769, 8945.500 874.095 C 8935.069 870.125, 8914.722 864.274, 8893.500 859.140 C 8695.235 811.178, 8681.861 805.601, 8667.826 765.022 C 8647.249 705.534, 8688.528 654.102, 8765.352 643.506 L 8775.500 642.106 8793 642.464 L 8810.500 642.823 8822.500 644.930 C 8857.893 651.146, 8880.504 661.634, 8899.534 680.665 C 8914.686 695.817, 8926.013 718.754, 8930.688 743.750 L 8932.418 753 9000.150 753 C 9041.078 753, 9068.111 752.630, 9068.460 752.065 C 9069.172 750.912, 9066.515 728.366, 9064.385 717.500 C 9058.185 685.863, 9041.924 648.397, 9025.732 628.440 C 8973.289 563.806, 8891.518 529.110, 8792 529.267 C 8778.525 529.288, 8765.700 529.467, 8763.500 529.663 M 7288.977 530.311 C 7288.715 530.549, 7284 531.024, 7278.500 531.367 C 7152.177 539.255, 7057.726 610.185, 7010.003 733 C 7007.118 740.425, 7003.951 748.525, 7002.966 751 C 6994.229 772.947, 6983.851 818.759, 6980.540 850 C 6980.219 853.025, 6979.701 857.300, 6979.389 859.500 C 6979.077 861.700, 6978.667 877.225, 6978.478 894 L 6978.135 924.500 6979.508 938.500 C 6983.205 976.213, 6988.068 1002.009, 6998.644 1040 C 7007.262 1070.962, 7021.293 1104.122, 7035.455 1127 C 7055.462 1159.319, 7074.742 1180.676, 7107.704 1207.030 C 7133.823 1227.913, 7186.288 1251.773, 7226.368 1260.996 C 7259.721 1268.671, 7307.295 1272.230, 7340.087 1269.504 C 7417.987 1263.026, 7474.112 1243.351, 7522.500 1205.559 C 7574.078 1165.274, 7609.805 1109.876, 7619.434 1055.250 L 7620.712 1048 7551.923 1048 L 7483.135 1048 7482.470 1050.250 C 7476.621 1070.060, 7452.236 1103.819, 7435.424 1115.384 C 7408.162 1134.136, 7384.612 1143.760, 7355.500 1148.044 C 7351.100 1148.692, 7346.375 1149.399, 7345 1149.616 C 7331.723 1151.710, 7297.544 1150.383, 7277.500 1146.995 C 7204.762 1134.700, 7152.060 1082.867, 7133.124 1005 C 7128.648 986.592, 7126.106 960.806, 7126.840 941.250 L 7127 937 7378.023 937 L 7629.045 937 7628.903 899.750 C 7628.401 768.546, 7598.095 681.973, 7528.692 613.482 C 7521.436 606.322, 7513.700 599.122, 7511.500 597.482 C 7509.301 595.842, 7505.234 592.680, 7502.464 590.455 C 7463.105 558.852, 7410.725 538.915, 7347.500 531.471 C 7341.305 530.742, 7289.633 529.718, 7288.977 530.311 M 4683 531.609 C 4681.625 531.821, 4676.450 532.490, 4671.500 533.096 C 4600.903 541.736, 4539.993 579.030, 4501.417 637.234 C 4492.543 650.624, 4489.745 654.813, 4486.617 659.387 L 4485.327 661.274 4483.413 656.887 L 4481.500 652.500 4481.241 602.183 L 4480.982 551.866 4479.424 548.854 C 4478.544 547.151, 4476.342 545.205, 4474.358 544.376 L 4470.848 542.910 4406.674 543.205 L 4342.500 543.500 4340.165 544.830 C 4338.881 545.562, 4337.194 547.685, 4336.415 549.548 L 4335 552.936 4335 1020.468 L 4335 1488 4408 1488 L 4481 1488 4481 1314.500 L 4481 1141 4483.766 1141 L 4486.533 1141 4489.690 1146.250 C 4491.427 1149.138, 4495.501 1154.650, 4498.745 1158.500 C 4501.988 1162.350, 4508.643 1170.450, 4513.532 1176.500 C 4535.200 1203.308, 4547.005 1214.352, 4571.675 1230.894 C 4599.523 1249.567, 4628.468 1260.875, 4664.500 1267.160 L 4677.500 1269.428 4705.500 1269.448 L 4733.500 1269.469 4748 1267.188 C 4817.231 1256.299, 4860.995 1235.295, 4903.501 1192.556 C 4964.327 1131.396, 4995.492 1052.101, 5004.533 935.500 L 5005.851 918.500 5005.456 890 C 5005.239 874.325, 5004.863 860.375, 5004.620 859 C 5004.377 857.625, 5003.884 852.675, 5003.525 848 C 4998.887 787.667, 4972.605 699.986, 4948.584 664.706 C 4947.163 662.619, 4946 660.738, 4946 660.526 C 4946 659.656, 4933.348 641.033, 4928.658 635 C 4884.536 578.245, 4827.406 546.125, 4748 533.431 L 4737.500 531.752 4711.500 531.488 C 4697.200 531.343, 4684.375 531.397, 4683 531.609 M 5391.021 650.560 C 5324.260 660.046, 5274.099 700.679, 5249.743 765 C 5241.894 785.730, 5235 814.723, 5235 827.007 L 5235 833 5414 833 C 5526.285 833, 5593 832.646, 5593 832.051 C 5593 831.529, 5592.094 826.241, 5590.987 820.301 C 5589.879 814.360, 5588.271 805.675, 5587.412 801 C 5570.158 707.092, 5508.555 651.330, 5420 649.462 L 5401.500 649.071 5391.021 650.560 M 7289.589 651.033 C 7199.682 661.268, 7135.957 729.781, 7129.409 823.250 L 7128.726 833 7306.363 833 L 7484 833 7483.999 830.250 C 7483.951 721.036, 7394.998 639.035, 7289.589 651.033 M 4647 656.069 C 4584.625 665.276, 4534.958 702.298, 4510.252 758 C 4508.911 761.025, 4507.001 765.300, 4506.009 767.500 C 4461.631 865.916, 4475.077 1009.074, 4535.408 1080.500 C 4562.825 1112.960, 4596.059 1132.639, 4638.744 1141.691 L 4651.500 1144.396 4673 1144.377 L 4694.500 1144.359 4706 1142.079 C 4761.189 1131.136, 4802.542 1098.924, 4826.012 1048.595 C 4840.800 1016.884, 4853.334 972.117, 4856.558 939.500 C 4856.938 935.650, 4857.444 931.600, 4857.683 930.500 C 4865.265 895.513, 4851.150 809.147, 4829.628 758.837 C 4797.929 684.737, 4726.207 644.378, 4647 656.069 M 8065.591 656.206 C 7954.887 664.094, 7881.054 781.229, 7893.328 929.500 C 7902.872 1044.800, 7960.510 1124.242, 8047.554 1142.072 L 8057.500 1144.109 8077.282 1144.692 L 8097.063 1145.275 8106.282 1144.050 C 8197.442 1131.927, 8256.010 1057.927, 8266.990 941 C 8267.583 934.675, 8268.275 927.700, 8268.526 925.500 C 8269.447 917.422, 8269.076 871.080, 8268.006 860.453 C 8264.617 826.830, 8256.649 794.417, 8245.364 768.349 C 8244.614 766.616, 8244 764.927, 8244 764.595 C 8244 762.441, 8230.636 737.752, 8224.501 728.574 C 8189.711 676.523, 8134.341 651.307, 8065.591 656.206 M 1270 913.619 C 1213.696 920.734, 1175.017 934.941, 1139.351 961.605 C 1105.320 987.048, 1076.717 1024.787, 1058.707 1068.009 C 1049.647 1089.750, 1045.703 1104.824, 1042.489 1130 L 1041.148 1140.500 1041.485 1161 L 1041.823 1181.500 1043.909 1195.073 C 1065.569 1335.950, 1201.074 1428.077, 1340 1396.379 C 1410.381 1380.320, 1461.493 1342.679, 1498.425 1279.706 C 1520.874 1241.428, 1529.212 1206.190, 1528.526 1152.500 L 1528.181 1125.500 1526.655 1116.500 C 1510.308 1020.110, 1442.852 946.314, 1348.007 921.061 C 1338.061 918.413, 1333.595 917.455, 1319.500 914.946 C 1313.275 913.838, 1276.145 912.843, 1270 913.619 M 4025 935.084 C 4019.225 935.432, 4008.650 936.019, 4001.500 936.387 C 3994.350 936.756, 3985.800 937.261, 3982.500 937.509 C 3979.200 937.756, 3972.225 938.195, 3967 938.483 C 3949.239 939.462, 3923.520 941.022, 3917.500 941.486 C 3914.200 941.741, 3908.125 942.202, 3904 942.512 C 3871.397 944.960, 3857.327 946.428, 3847.258 948.435 C 3842.623 949.359, 3825.002 954.322, 3811.226 958.584 C 3803.375 961.013, 3796.370 963, 3795.659 963 C 3791.936 963, 3776.005 972.873, 3767.254 980.604 C 3744.666 1000.558, 3735.281 1024.728, 3737.151 1058.124 L 3737.802 1069.747 3740.462 1078.624 C 3754.810 1126.507, 3802.416 1153.378, 3870.018 1151.752 L 3889.500 1151.283 3901.907 1149.055 C 3942.868 1141.701, 3978.411 1123.944, 4004 1098.048 C 4012.305 1089.644, 4013.491 1088.259, 4020.305 1079 C 4039.983 1052.263, 4050.709 1009.700, 4049.411 963.500 C 4049.288 959.100, 4049.078 951.470, 4048.946 946.544 C 4048.813 941.618, 4048.488 936.758, 4048.223 935.745 L 4047.741 933.903 4041.621 934.177 C 4038.254 934.328, 4030.775 934.736, 4025 935.084" stroke="none" fill="#080808" fill-rule="evenodd"/><path d="" stroke="none" fill="#040404" fill-rule="evenodd"/><path d="" stroke="none" fill="#0c0c0c" fill-rule="evenodd"/></svg>